<?xml version="1.0" encoding="iso-8859-1"?>
<!-- Generator: Adobe Illustrator 19.0.0, SVG Export Plug-In . SVG Version: 6.00 Build 0)  -->
<svg version="1.1" id="Layer_1" xmlns="http://www.w3.org/2000/svg" xmlns:xlink="http://www.w3.org/1999/xlink" x="0px" y="0px"
	 viewBox="0 0 512 512" style="enable-background:new 0 0 512 512;" xml:space="preserve">
<g>
	<g>
		<path d="M466.832,151.1c3.337-3.328,3.337-8.73,0-12.066c-3.328-3.328-8.73-3.328-12.066,0L437.699,156.1
			c-0.478,0.478-0.742,1.075-1.084,1.63l-14.071-14.08c0.546-0.341,1.143-0.606,1.621-1.084l17.067-17.067
			c3.337-3.328,3.337-8.73,0-12.066c-3.328-3.328-8.73-3.328-12.066,0L412.099,130.5c-0.478,0.478-0.742,1.075-1.084,1.63
			l-14.071-14.08c0.546-0.341,1.143-0.606,1.621-1.084L415.632,99.9c3.337-3.328,3.337-8.73,0-12.066
			c-3.328-3.328-8.73-3.328-12.066,0L386.499,104.9c-0.478,0.478-0.742,1.075-1.084,1.63l-14.071-14.08
			c0.546-0.341,1.143-0.606,1.621-1.084L390.032,74.3c3.337-3.328,3.337-8.73,0-12.066c-3.328-3.328-8.73-3.328-12.066,0
			L360.899,79.3c-0.478,0.478-0.742,1.075-1.084,1.63l-14.071-14.08c0.546-0.341,1.143-0.606,1.621-1.084L364.432,48.7
			c3.337-3.328,3.337-8.73,0-12.066c-3.328-3.328-8.73-3.328-12.066,0L335.299,53.7c-0.478,0.478-0.742,1.075-1.084,1.63
			l-0.256-0.265c-7.108-7.108-18.654-7.091-25.745,0l-22.528,22.537c-7.1,7.1-7.1,18.645,0,25.737l11.264,11.264l-83.618,83.627
			v-61.696h15.932c10.035,0,18.202-8.158,18.202-18.202V86.468c0-10.035-8.166-18.202-18.202-18.202h-15.932V18.202
			C213.332,8.166,205.166,0,195.131,0H95.001C84.965,0,76.799,8.166,76.799,18.202v50.065H60.867
			c-10.035,0-18.202,8.166-18.202,18.202v31.863c0,10.044,8.166,18.202,18.202,18.202h15.932v238.933H60.867
			c-10.035,0-18.202,8.166-18.202,18.202v31.863c0,10.044,8.166,18.202,18.202,18.202h15.932v50.065
			c0,10.044,8.166,18.202,18.202,18.202h100.13c10.035,0,18.202-8.158,18.202-18.202v-50.065h15.932
			c10.035,0,18.202-8.158,18.202-18.202v-31.863c0-10.035-8.166-18.202-18.202-18.202h-3.567l167.74-164.378l11.324,11.324
			c3.55,3.55,8.209,5.325,12.877,5.325c4.659,0,9.31-1.775,12.86-5.325l22.537-22.528c7.091-7.1,7.091-18.645,0-25.745l-4.89-4.89
			c0.546-0.341,1.143-0.606,1.621-1.084L466.832,151.1z M60.867,119.467c-0.623,0-1.135-0.503-1.135-1.135V86.468
			c0-0.623,0.512-1.135,1.135-1.135h24.465h119.467h24.465c0.631,0,1.135,0.512,1.135,1.135v31.863c0,0.631-0.503,1.135-1.135,1.135
			h-24.465H85.332H60.867z M229.264,392.533c0.631,0,1.135,0.512,1.135,1.135v31.863c0,0.631-0.503,1.135-1.135,1.135h-24.465
			H85.332H60.867c-0.623,0-1.135-0.503-1.135-1.135v-31.863c0-0.623,0.512-1.135,1.135-1.135h24.465h119.467H229.264z
			 M440.968,187.819l-22.537,22.528c-0.452,0.452-1.161,0.435-1.604,0L399.53,193.05l-84.48-84.48l-17.297-17.297
			c-0.444-0.444-0.444-1.161,0-1.604l22.528-22.537c0.23-0.213,0.521-0.333,0.802-0.333c0.29,0,0.589,0.119,0.811,0.333
			l119.074,119.083C441.411,186.65,441.411,187.375,440.968,187.819z"/>
	</g>
</g>
<g>
</g>
<g>
</g>
<g>
</g>
<g>
</g>
<g>
</g>
<g>
</g>
<g>
</g>
<g>
</g>
<g>
</g>
<g>
</g>
<g>
</g>
<g>
</g>
<g>
</g>
<g>
</g>
<g>
</g>
</svg>
