<svg class="svg-icon" style="width: 1em; height: 1em;vertical-align: middle;fill: currentColor;overflow: hidden;" viewBox="0 0 1024 1024" version="1.1" xmlns="http://www.w3.org/2000/svg"><path d="M988.608 88.384h-70.624s-7.904-35.328-17.664-35.328h-247.104c-9.792 0-17.664 35.328-17.664 35.328h-247.104s-7.936-35.328-17.664-35.328H123.68c-9.792 0-17.664 35.328-17.664 35.328H35.392c-19.52 0-35.296 15.808-35.296 35.328v141.184h1023.808V123.68c0-19.52-15.84-35.296-35.296-35.296zM513.44 230.304a52.96 52.96 0 1 1 0-105.92 52.96 52.96 0 0 1 0 105.92z m141.248 0l0 0z m141.216 0a52.96 52.96 0 1 1 0-105.92 52.96 52.96 0 0 1 0 105.92z m138.976 0a52.96 52.96 0 1 1 0.096-105.92 52.96 52.96 0 0 1-0.096 105.92zM0.096 935.648c0 19.488 15.776 35.296 35.296 35.296h953.216c19.456 0 35.328-15.776 35.328-35.296V300.192H0.096v635.456zM70.688 406.08c0-19.456 15.808-35.328 35.328-35.328h811.936c19.488 0 35.328 15.84 35.328 35.328v458.976c0 19.488-15.84 35.296-35.328 35.296H106.016c-19.52 0-35.328-15.776-35.328-35.296V406.08z"  /><path d="M319.328 682.752h24.288c3.904 14.08 9.6 27.648 16.864 40.448l-22.464 22.464a36.8 36.8 0 0 0 0 52.064l13.056 12.96a36.8 36.8 0 0 0 52.032 0l22.592-22.624c12.544 7.136 26.016 12.672 40.256 16.64v23.552c0 20.352 16.544 36.8 36.864 36.8h18.4a36.8 36.8 0 0 0 36.768-36.8v-23.552a177.184 177.184 0 0 0 40.32-16.64l22.624 22.624a36.768 36.768 0 0 0 52 0l13.088-12.96a36.832 36.832 0 0 0 0-52.064l-22.528-22.464c7.296-12.768 12.992-26.336 16.832-40.448h24.352a36.8 36.8 0 0 0 36.768-36.832v-18.4a36.8 36.8 0 0 0-36.768-36.768h-24.032a173.28 173.28 0 0 0-16.256-40.128l21.6-21.632a36.8 36.8 0 0 0 0-52.032l-13.088-13.024a36.704 36.704 0 0 0-52 0l-21.184 21.184a173.28 173.28 0 0 0-41.76-17.472v-24.672c0-20.32-16.448-36.768-36.768-36.768h-18.4c-20.32 0-36.864 16.448-36.864 36.768v24.736a174.816 174.816 0 0 0-41.664 17.408l-21.184-21.184a36.736 36.736 0 0 0-52.032 0l-13.056 13.024a36.736 36.736 0 0 0 0 52.032l21.568 21.632c-7.008 12.48-12.448 25.984-16.224 40.128h-24A36.8 36.8 0 0 0 282.56 627.52v18.4a36.8 36.8 0 0 0 36.768 36.832zM512 536.096a101.216 101.216 0 1 1-101.248 101.184A101.184 101.184 0 0 1 512 536.096z"  /></svg>