<svg xmlns="http://www.w3.org/2000/svg" enable-background="new 0 0 64 64" viewBox="0 0 64 64"><path d="M46.4,51.4V64h10V51.4H46.4z M54,59.9c0,0.4-0.3,0.7-0.7,0.7h-3.6c-0.4,0-0.7-0.3-0.7-0.7v-2.6c0-1.4,1.2-2.6,2.6-2.6c1.4,0,2.6,1.2,2.6,2.6V59.9z"/><polygon points="49.1 31.2 46.4 31.2 46.4 49.9 56.1 49.9"/><rect width="5.9" height="12.6" x="39" y="51.4"/><path d="M44.9 49.9V27.9H33v2.4c0 .5.2.9.7 1.1l.2.1c.9.5 1.4 1.4 1.4 2.4v2.2c0 .4.2.8.5 1 .7.5 1.1 1.4 1.1 2.2v3l.2.1c.7.2 1.4.7 1.7 1.5 0 .1.1.2.1.3l.1 5.8H44.9zM29.8 60.1c-.8 0-1.4.6-1.4 1.4V64h2.8v-2.5C31.2 60.7 30.6 60.1 29.8 60.1zM13.8 47.2V64h6.9V47.2l-3.4-5.7L13.8 47.2zM19 48.4c0 1-.8 1.8-1.8 1.8-1 0-1.8-.8-1.8-1.8 0-1 .8-1.8 1.8-1.8C18.2 46.6 19 47.4 19 48.4z"/><path d="M25.6,64h1.3v-2.5c0-1.6,1.3-2.9,2.9-2.9c1.6,0,2.9,1.3,2.9,2.9V64H34V50.2h-8.4V64z"/><path d="M37.4,44.3c-0.2-0.3-0.6-0.5-0.9-0.5h-0.3c-0.4,0-0.7-0.3-0.7-0.7v-3.7c0-0.4-0.2-0.8-0.5-1c-0.7-0.5-1.1-1.4-1.1-2.2v-2.2c0-0.5-0.3-0.9-0.6-1.1l-0.2-0.1c-0.9-0.5-1.4-1.4-1.4-2.4v-2.5c0-1-0.7-1.7-1.7-1.7c-0.9,0-1.7,0.8-1.7,1.7v2.5c0,1-0.6,2-1.4,2.4l-0.2,0.1c-0.4,0.2-0.6,0.6-0.6,1.1v2.2c0,0.9-0.4,1.7-1.1,2.2c-0.3,0.2-0.5,0.6-0.5,1V43c0,0.4-0.3,0.7-0.7,0.7h-0.3c-0.4,0-0.7,0.2-0.9,0.5l-0.1,0.1l-0.1,2.1l0,0.3V64h2V49.4c0-0.4,0.3-0.7,0.7-0.7h9.9c0.4,0,0.7,0.3,0.7,0.7V64h2l0-13.3l0-0.1L37.4,44.3L37.4,44.3z M29.6,37.9c-1.3,0-2.4-1.1-2.4-2.4c0-1.3,1.1-2.4,2.4-2.4c1.3,0,2.4,1.1,2.4,2.4C31.9,36.8,30.9,37.9,29.6,37.9z"/><rect width="4.7" height="12.6" x="7.6" y="51.4"/><path d="M10.6,12.5c0.2,0,0.4,0.1,0.5,0.2l2.1,2L10.7,0L8,14.8l2.1-2C10.2,12.6,10.4,12.5,10.6,12.5z"/><polygon points="13.6 17.2 10.6 14.3 7.6 17.2 7.6 26.4 13.6 26.4"/><path d="M22.7 42.3v-3c0-.9.4-1.7 1.1-2.2.3-.2.5-.6.5-1v-2.2c0-1 .6-1.9 1.4-2.4l.2-.1c.4-.2.6-.6.6-1.1v-2.4H7.6v22.1h4.7V47c0-.1 0-.3.1-.4l4.2-6.9c.1-.2.4-.4.6-.4.3 0 .5.1.6.4l2.8 4.6.3-.5c.3-.7.9-1.2 1.6-1.4L22.7 42.3zM29.6 34.7c-.5 0-.9.4-.9.9 0 .5.4.9.9.9.5 0 .9-.4.9-.9C30.4 35.1 30 34.7 29.6 34.7zM51.4 56.2c-.6 0-1.1.5-1.1 1.1v1.9h2.2v-1.9C52.5 56.7 52 56.2 51.4 56.2z"/></svg>