<?xml version="1.0" encoding="iso-8859-1"?>
<!-- Generator: Adobe Illustrator 16.0.0, SVG Export Plug-In . SVG Version: 6.00 Build 0)  -->
<!DOCTYPE svg PUBLIC "-//W3C//DTD SVG 1.1//EN" "http://www.w3.org/Graphics/SVG/1.1/DTD/svg11.dtd">
<svg version="1.1" id="Capa_1" xmlns="http://www.w3.org/2000/svg" xmlns:xlink="http://www.w3.org/1999/xlink" x="0px" y="0px"
	 width="800.58px" height="800.579px" viewBox="0 0 800.58 800.579" style="enable-background:new 0 0 800.58 800.579;"
	 xml:space="preserve">
<g>
	<g>
		<path d="M535.368,456.82V283.86h-58.374v172.96h-45.402V221.165h-58.374v235.657h-38.913v136.207H109.453v207.551h224.851h319.974
			V593.027V456.82H535.368z M323.493,688.154H131.076v-75.312h192.417V688.154z M425.106,588.704h-67.021V476.279h67.021V588.704z
			 M528.04,588.704h-67.021V476.279h67.021V588.704z M635.06,588.704h-67.023V476.279h67.023V588.704z"/>
		<path d="M407.269,177.06C399.692,67.186,691.126-70.382,691.126,41.636c0,90.74-169.264,36.464-247.579,85.833
			C413.458,146.436,407.269,177.06,407.269,177.06z"/>
		<path d="M512.357,265.588c-4.271-61.916,159.962-139.44,159.962-76.315c0,51.135-95.384,20.549-139.519,48.37
			C515.845,248.332,512.357,265.588,512.357,265.588z"/>
	</g>
</g>
<g>
</g>
<g>
</g>
<g>
</g>
<g>
</g>
<g>
</g>
<g>
</g>
<g>
</g>
<g>
</g>
<g>
</g>
<g>
</g>
<g>
</g>
<g>
</g>
<g>
</g>
<g>
</g>
<g>
</g>
</svg>
