<?xml version="1.0" encoding="iso-8859-1"?>
<!-- Generator: Adobe Illustrator 19.0.0, SVG Export Plug-In . SVG Version: 6.00 Build 0)  -->
<svg version="1.1" id="Layer_1" xmlns="http://www.w3.org/2000/svg" xmlns:xlink="http://www.w3.org/1999/xlink" x="0px" y="0px"
	 viewBox="0 0 512.001 512.001" style="enable-background:new 0 0 512.001 512.001;" xml:space="preserve">
<g>
	<g>
		<g>
			<path d="M510.75,387.985c-2.867-11.196-10.445-20.582-20.625-25.668l-13.32-7.023l8.653-73.694h0.947
				c4.71,0,8.533-3.823,8.533-8.533v-51.2c0-4.71-3.823-8.533-8.533-8.533h-59.733V153.6c0-4.71-3.823-8.533-8.533-8.533h-5.547
				l-37.12-29.696V84.471c19.448-3.968,34.133-21.205,34.133-41.805C409.604,19.14,390.464,0,366.938,0
				c-21.786,0-39.603,16.478-42.155,37.581l-216.26,133.086H8.538c-4.719,0-8.533,3.823-8.533,8.533v51.2
				c0,1.681,0.495,3.328,1.434,4.736l17.058,25.6c1.587,2.372,4.25,3.797,7.1,3.797h42.675v32.58l-25.062,66.824
				c-0.324,0.879-0.452,1.784-0.478,2.697c-0.008,0.102-0.06,0.196-0.06,0.299v59.733h42.667c4.71,0,8.533,3.823,8.533,8.533
				s-3.823,8.533-8.533,8.533H42.671V460.8h59.733c4.71,0,8.533,3.823,8.533,8.533s-3.823,8.533-8.533,8.533H42.671v25.6
				c0,4.71,3.814,8.533,8.533,8.533h136.533c4.71,0,8.533-3.823,8.533-8.533V366.933c0-0.102-0.06-0.196-0.06-0.299
				c-0.034-0.913-0.154-1.818-0.486-2.697l-25.054-66.824v-62.447l187.733-140.8v21.504l-37.129,29.696h-5.538
				c-4.719,0-8.533,3.823-8.533,8.533v59.733h-59.733c-4.719,0-8.533,3.823-8.533,8.533v51.2c0,4.71,3.814,8.533,8.533,8.533h9.404
				l8.064,74.59l-11.81,6.4c-10.658,4.975-18.534,14.336-21.606,25.694c-3.081,11.358-0.998,23.415,5.478,32.759l19.251,30.754
				l91.264-45.201c16.307-7.364,33.519-7.339,48.708-0.043l90.496,43.486l18.193-29.491
				C511.484,411.051,513.617,399.181,510.75,387.985z M30.161,247.467l-13.09-19.652v-40.081h85.333V230.4v17.067h-25.6H30.161z
				 M175.424,358.4H63.518l19.2-51.2h73.506L175.424,358.4z M159.288,221.867h-39.817V183.97L326.575,56.516
				c0.162,0.469,0.444,0.887,0.623,1.348c0.495,1.297,1.092,2.517,1.707,3.746c0.614,1.237,1.237,2.449,1.963,3.61
				c0.725,1.152,1.536,2.227,2.364,3.294c0.836,1.092,1.673,2.167,2.611,3.174c0.922,0.981,1.903,1.869,2.91,2.765
				c1.033,0.913,2.065,1.809,3.183,2.628c1.092,0.794,2.236,1.485,3.396,2.167c0.759,0.452,1.434,1.024,2.219,1.425L159.288,221.867
				z M341.338,42.667c0-14.114,11.477-25.6,25.6-25.6c14.114,0,25.6,11.486,25.6,25.6s-11.486,25.6-25.6,25.6
				C352.815,68.267,341.338,56.781,341.338,42.667z M366.938,130.389l18.338,14.677h-36.685L366.938,130.389z M460.625,346.769
				l-65.784-34.645c-11.716-5.615-32.102-7.441-48.99,0.196l-64.7,35.063l-7.108-65.783h194.227L460.625,346.769z"/>
			<path d="M354.814,422.025l-89.464,44.314l26.086,41.66c1.562,2.492,4.292,4.002,7.228,4.002h145.067
				c2.961,0,5.709-1.536,7.262-4.053l26.718-43.307l-88.875-42.701C378.264,416.871,366.172,416.88,354.814,422.025z"/>
			<circle cx="366.935" cy="42.667" r="8.533"/>
		</g>
	</g>
</g>
<g>
</g>
<g>
</g>
<g>
</g>
<g>
</g>
<g>
</g>
<g>
</g>
<g>
</g>
<g>
</g>
<g>
</g>
<g>
</g>
<g>
</g>
<g>
</g>
<g>
</g>
<g>
</g>
<g>
</g>
</svg>
