<?xml version="1.0" encoding="iso-8859-1"?>
<!-- Generator: Adobe Illustrator 19.0.0, SVG Export Plug-In . SVG Version: 6.00 Build 0)  -->
<svg version="1.1" id="Layer_1" xmlns="http://www.w3.org/2000/svg" xmlns:xlink="http://www.w3.org/1999/xlink" x="0px" y="0px"
	 viewBox="0 0 512 512" style="enable-background:new 0 0 512 512;" xml:space="preserve">
<g>
	<g>
		<path d="M418.133,0h-102.4v25.6c0,4.719-3.814,8.533-8.533,8.533s-8.533-3.814-8.533-8.533V0h-102.4
			c-4.719,0-8.533,3.823-8.533,8.533v51.2h-25.6c-4.719,0-8.533,3.823-8.533,8.533v26.377
			c-24.175,4.079-42.667,25.105-42.667,50.423v102.4H93.867c-4.719,0-8.533,3.823-8.533,8.533v34.133
			c0,4.719,3.814,8.533,8.533,8.533h51.2c4.719,0,8.533-3.814,8.533-8.533V256c0-4.71-3.814-8.533-8.533-8.533H128v-102.4
			c0-15.855,10.914-29.099,25.6-32.922v24.388c0,4.719,3.814,8.533,8.533,8.533h25.6v358.4c0,4.719,3.814,8.533,8.533,8.533h102.4
			v-25.6c0-4.71,3.814-8.533,8.533-8.533s8.533,3.823,8.533,8.533V512h102.4c4.719,0,8.533-3.814,8.533-8.533V8.533
			C426.667,3.823,422.852,0,418.133,0z M256,128h-59.733h-25.6V76.8h25.6H256V128z M315.733,437.035
			c0,4.719-3.814,8.533-8.533,8.533s-8.533-3.814-8.533-8.533v-32.913c0-4.719,3.814-8.533,8.533-8.533s8.533,3.814,8.533,8.533
			V437.035z M315.733,354.756c0,4.71-3.814,8.533-8.533,8.533s-8.533-3.823-8.533-8.533v-32.922c0-4.71,3.814-8.533,8.533-8.533
			s8.533,3.823,8.533,8.533V354.756z M315.733,272.461c0,4.719-3.814,8.533-8.533,8.533s-8.533-3.814-8.533-8.533v-32.904
			c0-4.719,3.814-8.533,8.533-8.533s8.533,3.814,8.533,8.533V272.461z M315.733,190.182c0,4.71-3.814,8.533-8.533,8.533
			s-8.533-3.823-8.533-8.533v-32.922c0-4.719,3.814-8.533,8.533-8.533s8.533,3.814,8.533,8.533V190.182z M315.733,107.895
			c0,4.719-3.814,8.533-8.533,8.533s-8.533-3.814-8.533-8.533V74.982c0-4.719,3.814-8.533,8.533-8.533s8.533,3.814,8.533,8.533
			V107.895z"/>
	</g>
</g>
<g>
</g>
<g>
</g>
<g>
</g>
<g>
</g>
<g>
</g>
<g>
</g>
<g>
</g>
<g>
</g>
<g>
</g>
<g>
</g>
<g>
</g>
<g>
</g>
<g>
</g>
<g>
</g>
<g>
</g>
</svg>
